<?xml version="1.0" encoding="UTF-8"?>
<!DOCTYPE svg PUBLIC "-//W3C//DTD SVG 1.0//EN" "http://www.w3.org/TR/2001/REC-SVG-20010904/DTD/svg10.dtd">
<!-- Creator: CorelDRAW X8 -->
<svg xmlns="http://www.w3.org/2000/svg" xml:space="preserve" width="527px" height="146px" version="1.0" style="shape-rendering:geometricPrecision; text-rendering:geometricPrecision; image-rendering:optimizeQuality; fill-rule:evenodd; clip-rule:evenodd"
viewBox="0 0 527 146"
 xmlns:xlink="http://www.w3.org/1999/xlink"
 xmlns:dc="http://purl.org/dc/elements/1.1/"
 xmlns:cc="http://creativecommons.org/ns#"
 xmlns:rdf="http://www.w3.org/1999/02/22-rdf-syntax-ns#"
 xmlns:svg="http://www.w3.org/2000/svg"
 xmlns:sodipodi="http://sodipodi.sourceforge.net/DTD/sodipodi-0.dtd"
 xmlns:inkscape="http://www.inkscape.org/namespaces/inkscape"
 inkscape:version="0.48.3.1 r9886"
 sodipodi:docname="New document 22">
 <defs>
  <style type="text/css">
   <![CDATA[
    .fil2 {fill:#4D4D4D}
    .fil5 {fill:#AD161B}
    .fil3 {fill:#DB1F28}
    .fil4 {fill:#EB7077}
    .fil0 {fill:#F7931A}
    .fil1 {fill:white}
    .fil6 {fill:#1F6EB0;fill-rule:nonzero}
   ]]>
  </style>
 </defs>
 <g id="Layer_x0020_1">
  <metadata id="CorelCorpID_0Corel-Layer"/>
  <sodipodi:namedview id="base" pagecolor="#ffffff" bordercolor="#666666" borderopacity="1.0" inkscape:pageopacity="0.0" inkscape:pageshadow="2" inkscape:zoom="0.35" inkscape:cx="471.62349" inkscape:cy="-153.92585" inkscape:document-units="px" inkscape:current-layer="layer1" showgrid="false" fit-margin-top="0" fit-margin-left="0" fit-margin-right="0" fit-margin-bottom="0" inkscape:window-width="483" inkscape:window-height="421" inkscape:window-x="36" inkscape:window-y="331" inkscape:window-maximized="0"/>
  <g id="g8300">
   <g id="g8302">
    <g id="g8304">
     <circle id="circle8306" class="fil0" cx="55" cy="91" r="55" sodipodi:cx="449.58099" sodipodi:cy="152.519" sodipodi:rx="15.994" sodipodi:ry="15.994"/>
     <g id="g8308">
      <g id="g8310">
       <path id="path8312" class="fil1" d="M79 83c1,-7 -4,-11 -12,-14l3 -10 -6 -1 -3 9c-1,0 -3,0 -5,-1l3 -9 -6 -2 -3 10c-1,0 -2,-1 -4,-1l0 0 -8 -2 -2 6c0,0 5,2 5,2 2,0 3,2 3,3l-3 11c0,0 0,0 0,1 0,0 0,-1 0,-1l-4 16c0,1 -1,2 -3,2 0,0 -4,-1 -4,-1l-3 7 8 1c1,1 2,1 4,2l-3 10 6 1 3 -10c2,1 3,1 5,1l-3 10 6 2 3 -10c10,2 18,1 21,-8 3,-8 0,-12 -5,-15 3,-1 6,-3 7,-9l0 0zm-14 19c-1,8 -14,4 -18,3l3 -13c4,1 17,3 15,10l0 0zm2 -19c-1,7 -12,3 -15,3l3 -13c3,1 14,3 12,10l0 0z" inkscape:connector-curvature="0"/>
      </g>
     </g>
    </g>
   </g>
   <g id="g8314">
    <path id="path8316" class="fil2" d="M161 69c5,0 9,1 12,3 3,1 6,3 8,6 2,3 4,6 5,10 1,3 1,7 1,11 0,7 -1,13 -3,18 -3,6 -6,11 -10,15 -4,5 -9,8 -15,10 -5,3 -11,4 -18,4 -1,0 -2,0 -4,0 -2,0 -5,0 -7,-1 -3,0 -6,-1 -9,-1 -3,-1 -6,-2 -8,-3l24 -102 21 -3 -8 36c2,-1 3,-2 5,-2 2,0 4,-1 6,-1l0 0zm-18 60c3,0 6,-1 9,-2 3,-2 6,-4 8,-7 2,-2 4,-5 5,-9 1,-3 2,-7 2,-10 0,-5 -1,-8 -3,-11 -1,-2 -4,-3 -8,-3 -1,0 -3,0 -5,0 -2,1 -4,2 -6,3l-9 38c1,0 1,1 2,1 0,0 0,0 1,0 0,0 1,0 2,0 0,0 1,0 2,0l0 0z" inkscape:connector-curvature="0"/>
    <path id="path8318" class="fil2" d="M210 144l-21 0 17 -73 21 0 -17 73zm10 -82c-3,0 -6,-1 -8,-3 -3,-1 -4,-4 -4,-8 0,-2 1,-3 1,-5 1,-2 2,-3 4,-5 1,-1 2,-2 4,-3 2,0 4,-1 6,-1 2,0 5,1 7,3 3,2 4,4 4,8 0,2 -1,4 -1,5 -1,2 -2,4 -3,5 -2,1 -3,2 -5,3 -2,1 -4,1 -5,1l0 0z" inkscape:connector-curvature="0"/>
    <path id="path8320" class="fil2" d="M245 53l22 -4 -6 22 24 0 -5 17 -23 0 -6 25c0,3 -1,5 -1,6 0,2 0,4 1,5 1,2 2,3 3,3 1,1 3,1 6,1 2,0 5,0 7,0 2,-1 4,-1 6,-2l1 16c-2,1 -5,2 -9,3 -3,0 -7,1 -11,1 -7,0 -11,-1 -15,-3 -4,-2 -6,-5 -8,-8 -1,-3 -2,-7 -1,-11 0,-5 0,-9 1,-14l14 -57z" inkscape:connector-curvature="0"/>
    <path id="path8322" class="fil2" d="M284 115c0,-7 1,-12 3,-18 2,-6 5,-10 8,-15 4,-4 9,-7 14,-10 6,-2 12,-3 18,-3 5,0 8,0 12,1 3,1 6,2 9,3l-7 16c-2,0 -4,-1 -6,-2 -2,0 -5,-1 -8,-1 -6,0 -12,3 -16,7 -4,5 -6,12 -6,20 0,4 1,8 3,11 2,3 6,4 11,4 3,0 6,0 8,0 3,-1 5,-2 7,-2l1 16c-2,1 -5,2 -8,3 -3,1 -7,1 -11,1 -6,0 -11,-1 -15,-3 -4,-1 -7,-3 -10,-6 -3,-3 -4,-6 -6,-10 -1,-4 -1,-8 -1,-12l0 0z" inkscape:connector-curvature="0"/>
    <path id="path8324" class="fil2" d="M375 146c-5,0 -9,-1 -13,-2 -3,-2 -6,-4 -9,-6 -2,-3 -4,-6 -5,-10 -1,-4 -2,-8 -2,-12 0,-6 1,-11 3,-17 2,-6 4,-11 8,-15 3,-4 8,-8 13,-11 5,-3 11,-4 17,-4 5,0 10,1 13,2 4,2 7,4 9,6 3,3 4,6 6,10 1,4 1,8 1,12 0,6 0,11 -2,17 -2,5 -5,10 -8,15 -3,4 -8,8 -13,11 -5,3 -11,4 -18,4l0 0zm10 -60c-3,0 -5,1 -8,3 -2,2 -4,4 -5,7 -2,2 -3,5 -4,9 -1,3 -1,6 -1,9 0,4 1,8 2,11 2,2 4,3 8,3 3,0 6,0 8,-2 3,-2 4,-4 6,-7 2,-3 3,-6 4,-9 0,-3 1,-6 1,-9 0,-4 -1,-8 -2,-11 -2,-2 -5,-4 -9,-4z" inkscape:connector-curvature="0"/>
    <path id="path8326" class="fil2" d="M439 144l-21 0 18 -73 20 0 -17 73zm10 -82c-3,0 -6,-1 -8,-3 -2,-1 -3,-4 -3,-8 0,-2 0,-3 1,-5 1,-2 2,-3 3,-5 1,-1 3,-2 4,-3 2,0 4,-1 6,-1 3,0 5,1 8,3 2,2 3,4 3,8 0,2 0,4 -1,5 -1,2 -2,4 -3,5 -1,1 -3,2 -5,3 -1,1 -3,1 -5,1l0 0z" inkscape:connector-curvature="0"/>
    <path id="path8328" class="fil2" d="M471 74c2,0 4,-1 5,-1 2,-1 4,-2 7,-2 2,-1 5,-1 8,-1 3,-1 6,-1 10,-1 11,0 18,3 22,10 4,6 5,15 2,25l-9 40 -21 0 9 -39c1,-2 1,-4 2,-7 0,-2 0,-4 0,-6 -1,-1 -2,-3 -3,-4 -1,-1 -3,-1 -6,-1 -3,0 -6,0 -8,0l-14 57 -21 0 17 -70 0 0z" inkscape:connector-curvature="0"/>
   </g>
  </g>
  <g id="_1788864175168">
   <g>
    <polygon class="fil3" points="369,33 377,23 361,23 359,20 361,17 378,17 369,8 372,4 385,20 372,36 "/>
    <rect class="fil4" transform="matrix(0.0799094 -0 -0.0631816 0.0799094 345.872 -0.00129276)" width="290" height="221"/>
    <rect class="fil5" transform="matrix(0.0799094 -0 -0.0631816 -0.0799094 345.872 40.1915)" width="290" height="221"/>
   </g>
   <path class="fil6" d="M414 14c0,0 0,0 0,0 0,1 0,1 0,1l-1 16 -5 0 -1 -2c0,1 -1,1 -2,2 -1,0 -2,0 -3,0l-1 0c-1,0 -1,0 -2,0 0,0 -1,0 -1,-1 -1,0 -1,0 -2,-1 0,-1 0,-2 -1,-3 0,0 0,0 0,0 0,0 1,-1 1,-1l0 -1c0,-1 0,-2 0,-2 0,-1 0,-2 1,-2 0,-1 1,-1 2,-2 1,0 2,0 4,0l5 0 0 -1c0,0 0,-1 0,-1 0,0 0,0 0,0 0,0 0,0 -1,-1 0,0 0,0 0,0l-8 0 1 -5 10 0c1,0 2,1 3,1 0,1 1,2 1,3zm-12 8c0,0 0,0 0,0 -1,0 -1,0 -1,1l0 1c0,1 0,1 0,1 0,0 0,1 0,1 1,0 1,0 2,0 0,0 1,0 2,0 1,0 1,0 2,-1l0 -3 -5 0zm34 -6c0,0 0,1 0,1l0 7c0,2 -1,4 -2,5 -1,1 -3,2 -5,2l-7 0 0 6 -7 0 3 -27 4 0 1 2c1,0 1,-1 2,-1 0,0 1,0 2,0 0,-1 1,-1 2,-1 1,0 1,0 2,0 1,0 1,0 2,0 1,1 1,1 2,2 0,0 1,1 1,1 0,1 0,2 0,3zm-6 1c0,0 0,-1 0,-1 0,0 -1,0 -1,0 -1,0 -1,0 -2,0 0,0 0,0 -1,0 -1,0 -1,0 -2,0 0,0 -1,0 -1,1l-1 9 7 0c0,0 1,-1 1,-1l0 -7c0,0 0,0 0,0 0,0 0,-1 0,-1zm15 14l-6 0 1 -21 6 0 -1 21zm2 -23l-7 0 1 -4 6 0 0 4zm15 8l-1 0c-1,0 -2,0 -3,0 -1,0 -2,1 -2,1l-2 14 -6 0 2 -21 5 0 0 2c1,0 1,0 2,-1 0,0 1,0 2,0 0,-1 1,-1 1,-1 1,0 2,0 2,0l0 6zm21 8c0,2 -1,4 -2,5 -1,1 -2,2 -5,2l-8 0c-1,0 -2,-1 -3,-1 -1,-1 -2,-2 -2,-4 0,0 0,0 0,0 0,-1 0,-1 0,-2l1 -7c0,-1 0,-2 0,-2 1,-1 1,-2 2,-3 0,0 1,-1 2,-1 1,0 2,-1 3,-1l8 0c2,0 3,1 3,2 1,1 2,2 2,3 0,1 0,1 0,1 0,0 0,1 0,1l-1 7zm-5 -7c0,0 0,-1 -1,-1 0,0 0,0 -1,0l-5 0c-1,0 -1,0 -1,1l-1 6c0,0 0,0 0,1 0,0 0,0 0,0 0,0 1,1 1,1 0,0 0,0 1,0l5 0c1,0 1,0 1,-1l1 -6c0,0 0,-1 0,-1 0,0 0,0 0,0zm28 -2c0,0 0,1 0,1 0,1 0,1 0,1l-1 14 -6 0 1 -12c0,-1 0,-1 0,-1 0,-2 -1,-2 -2,-2 0,0 -1,0 -2,0 -1,0 -2,0 -3,1l-1 14 -6 0 2 -21 4 0 1 2c1,0 1,-1 2,-1 1,0 1,0 2,0 1,-1 1,-1 2,-1 1,0 1,0 2,0 0,0 1,0 2,0 0,0 1,0 1,1 1,0 1,1 2,1 0,1 0,2 0,3zm21 0c0,0 0,1 0,1 0,0 0,0 0,0l0 2c0,1 -1,2 -2,3 -1,1 -2,1 -3,1 -1,0 -1,1 -2,1 0,0 -1,0 -2,0 0,0 -1,0 -2,0 0,0 -1,0 -1,0l0 1c0,0 0,0 0,0l0 0c0,1 0,1 0,2 1,0 1,0 2,0 1,0 1,0 2,0 1,0 2,0 3,0 1,0 2,-1 2,-1 1,0 2,0 3,0l-1 4c0,1 -1,1 -2,1 -1,0 -2,1 -2,1 -1,0 -2,0 -3,0 -1,0 -2,0 -3,0 0,0 -1,0 -2,0 -1,0 -1,0 -2,-1 -1,0 -2,0 -2,-1 -1,-1 -1,-2 -1,-3 0,-1 0,-1 0,-1 0,0 0,-1 0,-1l0 -7c1,-1 1,-1 1,-2 0,-1 1,-2 1,-2 1,-1 2,-2 3,-2 0,0 1,-1 3,-1l4 0c1,0 2,1 3,1 1,0 1,1 2,1 0,1 1,1 1,2 0,0 0,1 0,1zm-10 0c0,0 0,0 -1,1 0,0 0,0 0,1l-1 2c1,0 1,0 1,0 1,0 1,0 2,0 0,0 1,0 1,0 1,0 1,0 1,0 1,0 1,0 2,-1 0,0 0,0 0,0 0,0 0,-1 0,-1 0,0 0,0 0,0 0,-1 0,-1 0,-1 -1,-1 -1,-1 -2,-1l-3 0z"/>
  </g>
 </g>
</svg>
