<?xml version="1.0" encoding="utf-8"?>
<!-- Generator: Adobe Illustrator 22.0.1, SVG Export Plug-In . SVG Version: 6.00 Build 0)  -->
<svg version="1.1"
	 id="Слой_1" xmlns:cc="http://creativecommons.org/ns#" xmlns:dc="http://purl.org/dc/elements/1.1/" xmlns:rdf="http://www.w3.org/1999/02/22-rdf-syntax-ns#"
	 xmlns="http://www.w3.org/2000/svg" xmlns:xlink="http://www.w3.org/1999/xlink" x="0px" y="0px" viewBox="0 0 306.7 84.2"
	 style="enable-background:new 0 0 306.7 84.2;" xml:space="preserve">
<style type="text/css">
	.st0{fill:#F7931A;}
	.st1{fill:#FFFFFF;}
	.st2{fill:#4D4D4D;}
	.st3{fill:#B92A23;}
	.st4{fill:#E27A7E;}
	.st5{fill:#982318;}
	.st6{fill:#4973B1;}
</style>
<g transform="translate(-289.60744,-317.50471)">
	<path class="st0" d="M352.6,377.5c-4.3,17.1-21.6,27.6-38.8,23.3c-17.1-4.3-27.6-21.6-23.3-38.8c4.3-17.1,21.6-27.6,38.8-23.3
		C346.5,343,356.9,360.3,352.6,377.5L352.6,377.5z"/>
	<path class="st1" d="M335.7,365.2c0.6-4.3-2.6-6.5-7-8.1l1.4-5.8l-3.5-0.9l-1.4,5.6c-0.9-0.2-1.9-0.4-2.8-0.7l1.4-5.7l-3.5-0.9
		l-1.4,5.8c-0.8-0.2-1.5-0.3-2.2-0.5l0,0l-4.8-1.2l-0.9,3.8c0,0,2.6,0.6,2.5,0.6c1.4,0.4,1.7,1.3,1.6,2l-1.6,6.6
		c0.1,0,0.2,0.1,0.4,0.1c-0.1,0-0.2-0.1-0.4-0.1l-2.3,9.2c-0.2,0.4-0.6,1.1-1.6,0.8c0,0.1-2.6-0.6-2.6-0.6l-1.7,4l4.6,1.1
		c0.9,0.2,1.7,0.4,2.5,0.6l-1.5,5.8l3.5,0.9l1.4-5.8c1,0.3,1.9,0.5,2.8,0.7l-1.4,5.7l3.5,0.9l1.5-5.8c6,1.1,10.5,0.7,12.4-4.7
		c1.5-4.4-0.1-6.9-3.2-8.5C333.5,369.8,335.3,368.3,335.7,365.2L335.7,365.2z M327.7,376.4c-1.1,4.4-8.4,2-10.8,1.4l1.9-7.7
		C321.2,370.7,328.8,371.9,327.7,376.4L327.7,376.4z M328.8,365.1c-1,4-7.1,2-9.1,1.5l1.7-7C323.4,360.1,329.8,361,328.8,365.1z"/>
	<path class="st2" d="M383.4,357.1c2.6,0,4.8,0.5,6.7,1.4c1.9,0.9,3.5,2.2,4.7,3.7c1.2,1.6,2.2,3.4,2.8,5.5c0.6,2.1,0.9,4.4,0.9,6.8
		c0,3.7-0.7,7.3-2.1,10.6c-1.4,3.3-3.3,6.2-5.6,8.7c-2.4,2.5-5.2,4.4-8.4,5.8c-3.2,1.4-6.7,2.1-10.5,2.1c-0.5,0-1.3,0-2.6,0
		s-2.6-0.1-4.2-0.4c-1.6-0.2-3.2-0.5-5-1c-1.8-0.4-3.4-1-5-1.8l14-58.9l12.5-1.9l-5,20.9c1.1-0.5,2.2-0.9,3.2-1.1
		C381,357.2,382.1,357.1,383.4,357.1L383.4,357.1z M372.9,391.8c1.9,0,3.7-0.5,5.3-1.4c1.7-0.9,3.1-2.1,4.3-3.7
		c1.2-1.5,2.2-3.3,2.9-5.2s1.1-4,1.1-6.1c0-2.6-0.4-4.6-1.3-6.1c-0.9-1.5-2.5-2.2-4.8-2.2c-0.8,0-1.7,0.1-3,0.4
		c-1.2,0.3-2.3,0.8-3.3,1.7l-5.3,22.2c0.3,0.1,0.6,0.1,0.9,0.2c0.2,0.1,0.5,0.1,0.8,0.1c0.3,0,0.6,0,1,0S372.3,391.8,372.9,391.8
		L372.9,391.8z"/>
	<path class="st2" d="M411.5,400.6h-12l10.1-42.6h12.1L411.5,400.6z M417.3,352.8c-1.7,0-3.2-0.5-4.5-1.5c-1.4-1-2-2.5-2-4.6
		c0-1.1,0.2-2.2,0.7-3.2c0.5-1,1.1-1.9,1.8-2.6c0.8-0.7,1.6-1.3,2.6-1.7c1-0.4,2.1-0.6,3.2-0.6c1.7,0,3.2,0.5,4.5,1.5
		c1.3,1,2,2.5,2,4.6c0,1.1-0.2,2.2-0.7,3.2c-0.5,1-1.1,1.9-1.8,2.6c-0.8,0.7-1.6,1.3-2.6,1.7C419.5,352.6,418.4,352.8,417.3,352.8
		L417.3,352.8z"/>
	<path class="st2" d="M432.2,347.4l12.6-1.9l-3.1,12.6h13.4l-2.4,9.9h-13.4l-3.6,14.9c-0.3,1.2-0.5,2.4-0.6,3.5
		c-0.1,1.1,0.1,2,0.4,2.8c0.3,0.8,0.9,1.4,1.7,1.8c0.8,0.4,2,0.7,3.6,0.7c1.3,0,2.6-0.1,3.8-0.4c1.2-0.2,2.4-0.6,3.7-1l0.9,9.2
		c-1.6,0.6-3.4,1.1-5.3,1.5c-1.9,0.4-4.1,0.6-6.7,0.6c-3.7,0-6.6-0.6-8.7-1.7c-2.1-1.1-3.5-2.6-4.4-4.5c-0.9-1.9-1.2-4.1-1.1-6.6
		c0.1-2.5,0.5-5.1,1.1-7.9L432.2,347.4L432.2,347.4z"/>
	<path class="st2" d="M454.6,383.6c0-3.7,0.6-7.1,1.8-10.4c1.2-3.2,2.9-6.1,5.1-8.5c2.2-2.4,4.9-4.3,8.1-5.7
		c3.1-1.4,6.7-2.1,10.6-2.1c2.4,0,4.6,0.2,6.5,0.7c1.9,0.5,3.7,1.1,5.2,1.8l-4.1,9.4c-1.1-0.4-2.2-0.8-3.4-1.2
		c-1.2-0.4-2.6-0.5-4.3-0.5c-4,0-7.2,1.4-9.5,4.1c-2.3,2.8-3.5,6.5-3.5,11.1c0,2.8,0.6,5,1.8,6.7c1.2,1.7,3.4,2.5,6.6,2.5
		c1.6,0,3.1-0.2,4.5-0.5c1.5-0.3,2.8-0.7,3.9-1.2l0.9,9.6c-1.5,0.6-3.2,1.1-5,1.6c-1.8,0.4-4,0.7-6.6,0.7c-3.3,0-6.2-0.5-8.5-1.5
		c-2.3-1-4.2-2.3-5.7-3.9c-1.5-1.7-2.6-3.6-3.3-5.8C454.9,388.3,454.6,386,454.6,383.6L454.6,383.6z"/>
	<path class="st2" d="M507.8,401.7c-2.9,0-5.3-0.4-7.5-1.3c-2.1-0.9-3.8-2.1-5.2-3.6c-1.4-1.6-2.4-3.4-3.1-5.5c-0.7-2.1-1-4.5-1-7.1
		c0-3.2,0.5-6.5,1.6-9.7c1-3.2,2.6-6.2,4.7-8.7c2-2.6,4.6-4.7,7.5-6.4c3-1.6,6.4-2.5,10.2-2.5c2.8,0,5.3,0.4,7.4,1.3
		c2.1,0.9,3.9,2.1,5.3,3.6c1.4,1.6,2.4,3.4,3.1,5.5c0.7,2.1,1.1,4.5,1.1,7.1c0,3.2-0.5,6.5-1.5,9.7c-1,3.2-2.5,6.1-4.5,8.7
		c-2,2.6-4.5,4.7-7.5,6.4C515.2,400.9,511.8,401.7,507.8,401.7L507.8,401.7z M513.8,367.1c-1.8,0-3.3,0.5-4.7,1.5
		c-1.4,1-2.5,2.3-3.4,3.9c-0.9,1.6-1.6,3.3-2.1,5.1c-0.5,1.9-0.7,3.6-0.7,5.3c0,2.7,0.4,4.8,1.3,6.3c0.9,1.5,2.4,2.3,4.7,2.3
		c1.8,0,3.3-0.5,4.7-1.5c1.3-1,2.5-2.3,3.4-3.9c0.9-1.6,1.6-3.3,2.1-5.1c0.5-1.9,0.7-3.6,0.7-5.3c0-2.7-0.4-4.8-1.3-6.3
		C517.6,367.8,516.1,367.1,513.8,367.1L513.8,367.1z"/>
	<path class="st2" d="M544.8,400.6h-12L543,358H555L544.8,400.6z M550.7,352.8c-1.7,0-3.2-0.5-4.5-1.5c-1.3-1-2-2.5-2-4.6
		c0-1.1,0.2-2.2,0.7-3.2c0.5-1,1.1-1.9,1.8-2.6c0.8-0.7,1.6-1.3,2.6-1.7c1-0.4,2.1-0.6,3.2-0.6c1.7,0,3.2,0.5,4.5,1.5
		c1.3,1,2,2.5,2,4.6c0,1.1-0.2,2.2-0.7,3.2s-1.1,1.9-1.8,2.6c-0.8,0.7-1.6,1.3-2.6,1.7C552.9,352.6,551.8,352.8,550.7,352.8z"/>
	<path class="st2" d="M563.7,359.9c0.9-0.3,1.9-0.6,3-0.9c1.1-0.3,2.3-0.7,3.7-1c1.4-0.3,2.9-0.5,4.6-0.7c1.7-0.2,3.6-0.3,5.8-0.3
		c6.3,0,10.7,1.8,13.1,5.5c2.4,3.7,2.8,8.7,1.3,15.1l-5.5,23h-12.1l5.3-22.5c0.3-1.4,0.6-2.8,0.8-4.1c0.2-1.3,0.2-2.5,0-3.5
		c-0.2-1-0.7-1.8-1.5-2.4c-0.8-0.6-2-0.9-3.6-0.9c-1.6,0-3.2,0.2-4.8,0.5l-7.9,33h-12.1L563.7,359.9z"/>
</g>
<g>
	<g>
		<polygon class="st3" points="213.4,19.3 218.1,13.5 208.8,13.5 207.5,11.9 208.7,10.3 218.4,10.3 213.4,4.5 215.1,2.3 222.8,11.9 
			215.1,21.4 		"/>
		<polygon class="st4" points="191.4,10.4 205.1,10.4 213.3,0 199.6,0 		"/>
		<polygon class="st5" points="191.4,13.3 205.1,13.3 213.3,23.8 199.6,23.8 		"/>
	</g>
	<path class="st6" d="M239.8,8.2c0,0.1,0,0.2,0,0.3s0,0.2,0,0.3l-0.8,9.5h-2.7l-0.3-1.1c-0.5,0.4-1,0.7-1.6,0.9
		c-0.5,0.3-1.1,0.4-1.8,0.4H232c-0.3,0-0.5,0-0.8-0.1c-0.3-0.1-0.7-0.2-0.9-0.4c-0.3-0.2-0.6-0.5-0.8-0.9c-0.3-0.4-0.4-0.9-0.4-1.4
		c0-0.1,0-0.3,0-0.4s0-0.3,0-0.6l0.1-0.8c0-0.3,0.1-0.7,0.1-1c0.1-0.4,0.3-0.8,0.5-1.1c0.3-0.4,0.8-0.7,1.2-0.9
		c0.7-0.3,1.5-0.4,2.2-0.4h3V9.9c0-0.1,0-0.2,0-0.2V9.5c0-0.1-0.1-0.2-0.2-0.3c-0.1-0.1-0.2-0.1-0.3-0.1h-4.6l0.2-2.9h6
		c0.7-0.1,1.3,0.2,1.8,0.6C239.5,7.2,239.7,7.7,239.8,8.2L239.8,8.2z M232.9,12.9c-0.1,0-0.2,0-0.3,0.1c-0.1,0.1-0.2,0.2-0.2,0.3
		l-0.1,1c0,0.1,0,0.3,0,0.5c0,0.2,0.1,0.3,0.2,0.5c0.2,0.2,0.4,0.3,0.7,0.3c0.5,0,0.9-0.1,1.3-0.2c0.4-0.1,0.9-0.2,1.3-0.4l0.1-2.1
		L232.9,12.9z M253.1,9.2c0,0.4,0,0.7,0,1.1l-0.3,3.9c0,1.1-0.4,2.2-1.1,3c-0.7,0.8-1.8,1.2-2.9,1.1h-4.1l-0.3,3.4h-3.6L242,6.1h2.9
		l0.3,0.9l1-0.4c0.4-0.1,0.8-0.3,1.2-0.4s0.8-0.2,1.3-0.3c0.4-0.1,0.8-0.1,1.2-0.1c0.4,0,0.9,0.1,1.3,0.3c0.4,0.2,0.7,0.4,1,0.7
		c0.3,0.3,0.5,0.7,0.7,1C253,8.3,253.1,8.7,253.1,9.2L253.1,9.2z M249.6,10.2c0-0.3-0.1-0.5-0.3-0.7c-0.2-0.2-0.5-0.3-0.8-0.3
		c-0.1,0-0.3,0-0.6,0L247,9.4l-0.9,0.2l-0.8,0.2l-0.4,5.3h3.9c0.3,0,0.5-0.2,0.5-0.4c0,0,0,0,0-0.1l0.3-3.8c0-0.1,0-0.2,0-0.3
		C249.6,10.4,249.6,10.3,249.6,10.2L249.6,10.2z M258.1,18.2h-3.7l1-12.1h3.7L258.1,18.2L258.1,18.2z M259.3,4.7h-3.8l0.2-2.2h3.9
		L259.3,4.7z M268.1,9.3h-0.5c-0.6,0-1.2,0.1-1.7,0.2c-0.6,0.1-1,0.3-1.4,0.4l-0.7,8.4h-3.7l1-12.1h3l0.3,1c0.3-0.1,0.5-0.3,0.9-0.4
		c0.3-0.1,0.7-0.3,1-0.4c0.3-0.1,0.7-0.2,1.1-0.3c0.3-0.1,0.7-0.1,1-0.1C268.3,5.9,268.1,9.3,268.1,9.3z M280.8,14.1
		c0,1.1-0.4,2.1-1.1,3c-0.7,0.8-1.8,1.2-2.9,1.2h-4.9c-0.7,0-1.5-0.2-2-0.7c-0.5-0.5-0.8-1.3-0.8-2c0-0.1,0-0.3,0-0.4
		c0-0.1,0-0.3,0-0.7l0.3-4.2c0-0.6,0.1-1.1,0.3-1.6c0.2-0.5,0.4-0.9,0.8-1.3c0.3-0.4,0.8-0.7,1.3-0.9c0.6-0.2,1.2-0.3,1.8-0.3h4.9
		c0.8-0.1,1.5,0.3,2,0.8c0.5,0.6,0.8,1.3,0.8,2.1c0,0.1,0,0.3,0,0.4c0,0.1,0,0.3,0,0.4L280.8,14.1L280.8,14.1z M277.6,10.1
		c0-0.2-0.1-0.4-0.3-0.5c-0.2-0.1-0.4-0.2-0.6-0.2h-3.3c-0.2,0-0.5,0.2-0.5,0.4c0,0,0,0,0,0.1l-0.3,3.8c0,0.1,0,0.2,0,0.3
		c0,0.1,0,0.2,0,0.3c0,0.2,0.1,0.4,0.2,0.5c0.2,0.1,0.4,0.2,0.6,0.2h3.3c0.3,0,0.5-0.2,0.5-0.4c0,0,0,0,0-0.1l0.3-3.9
		c0-0.1,0-0.2,0-0.2L277.6,10.1L277.6,10.1z M294.5,8.9c0,0.2,0,0.4,0,0.6s0,0.5,0,0.7l-0.6,8h-3.6l0.6-7.2c0-0.2,0-0.5,0-0.7
		c-0.1-0.7-0.4-1.1-1-1.1c-0.5,0-1,0.1-1.5,0.2c-0.6,0.1-1.1,0.2-1.6,0.3l-0.7,8.5h-3.6l1-12.1h2.8l0.3,0.9c0.4-0.1,0.7-0.3,1.1-0.4
		c0.4-0.1,0.8-0.3,1.2-0.4c0.4-0.1,0.8-0.2,1.2-0.3c0.3-0.1,0.7-0.1,1-0.1c0.3,0,0.7,0,1,0.1c0.4,0.1,0.7,0.2,1,0.4
		c0.3,0.2,0.6,0.5,0.8,0.9C294.3,7.8,294.4,8.3,294.5,8.9L294.5,8.9z M306.7,8.9c0,0.1,0,0.3,0,0.4c0,0.1,0,0.3,0,0.4l-0.1,1
		c-0.1,0.7-0.4,1.3-0.9,1.7c-0.6,0.4-1.3,0.7-2,0.9c-0.3,0.1-0.6,0.1-0.9,0.1l-1.2,0.1l-1.1,0.1c-0.4,0-0.6,0-0.8,0V14
		c0,0.1,0,0.2,0,0.3v0.2c0,0.2,0.1,0.5,0.3,0.6c0.2,0.2,0.5,0.3,0.9,0.3c0.4,0,0.9,0,1.4-0.1l1.6-0.2c0.5-0.1,1-0.1,1.5-0.2
		c0.5-0.1,0.9-0.2,1.3-0.3l-0.3,2.7c-0.4,0.2-0.8,0.3-1.3,0.4c-0.5,0.2-1,0.3-1.6,0.4s-1.1,0.2-1.7,0.3c-0.5,0.1-1,0.1-1.5,0.1
		c-0.4,0-0.8,0-1.2-0.1c-0.5-0.1-0.9-0.2-1.3-0.4c-0.5-0.2-0.8-0.6-1.1-1c-0.4-0.5-0.6-1.2-0.6-1.8c0-0.2,0-0.3,0-0.5
		c0-0.2,0-0.4,0-0.6l0.3-3.9c0-0.5,0.1-1.1,0.3-1.6c0.2-0.5,0.4-0.9,0.8-1.3c0.4-0.4,0.8-0.7,1.3-0.9c0.6-0.2,1.2-0.4,1.9-0.3h2.6
		c0.6,0,1.2,0.1,1.8,0.3c0.4,0.2,0.8,0.4,1.1,0.7c0.2,0.3,0.4,0.6,0.5,0.9C306.6,8.3,306.7,8.6,306.7,8.9L306.7,8.9z M301.1,9
		c-0.2,0-0.5,0.1-0.7,0.2c-0.2,0.2-0.4,0.5-0.4,0.8l-0.1,1.3h0.6c0.3,0,0.6,0,0.9,0l0.9-0.1c0.2,0,0.4,0,0.6-0.1
		c0.2,0,0.5-0.1,0.7-0.3c0.1-0.1,0.2-0.2,0.2-0.4c0-0.1,0.1-0.2,0.1-0.3c0-0.1,0-0.3,0-0.3c0-0.4-0.4-0.8-0.8-0.8c0,0-0.1,0-0.1,0
		L301.1,9z"/>
</g>
</svg>
