<?xml version="1.0" encoding="utf-8"?>
<!-- Generator: Adobe Illustrator 22.0.1, SVG Export Plug-In . SVG Version: 6.00 Build 0)  -->
<svg version="1.1"
	 id="Слой_1" xmlns:cc="http://creativecommons.org/ns#" xmlns:dc="http://purl.org/dc/elements/1.1/" xmlns:rdf="http://www.w3.org/1999/02/22-rdf-syntax-ns#"
	 xmlns="http://www.w3.org/2000/svg" xmlns:xlink="http://www.w3.org/1999/xlink" x="0px" y="0px" viewBox="0 0 95 26.1" width="95" height="26.1"
	 style="enable-background:new 0 0 95 26.1;" xml:space="preserve">
<style type="text/css">
	.st0{fill:#F7931A;}
	.st1{fill:#FFFFFF;}
	.st2{fill:#4D4D4D;}
	.st3{fill:#B92A23;}
	.st4{fill:#E27A7E;}
	.st5{fill:#982318;}
	.st6{fill:#4973B1;}
</style>
<g transform="translate(-289.60744,-317.50471)">
	<path class="st0" d="M309.1,336.1c-1.3,5.3-6.7,8.5-12,7.2c-5.3-1.3-8.5-6.7-7.2-12c1.3-5.3,6.7-8.5,12-7.2
		S310.5,330.8,309.1,336.1L309.1,336.1z"/>
	<path class="st1" d="M303.9,332.3c0.2-1.3-0.8-2-2.2-2.5l0.4-1.8l-1.1-0.3l-0.4,1.7c-0.3-0.1-0.6-0.1-0.9-0.2l0.4-1.8l-1.1-0.3
		l-0.4,1.8c-0.2-0.1-0.5-0.1-0.7-0.2l0,0l-1.5-0.4l-0.3,1.2c0,0,0.8,0.2,0.8,0.2c0.4,0.1,0.5,0.4,0.5,0.6l-0.5,2c0,0,0.1,0,0.1,0
		c0,0-0.1,0-0.1,0l-0.7,2.8c-0.1,0.1-0.2,0.3-0.5,0.2c0,0-0.8-0.2-0.8-0.2l-0.5,1.2l1.4,0.3c0.3,0.1,0.5,0.1,0.8,0.2l-0.5,1.8
		l1.1,0.3l0.4-1.8c0.3,0.1,0.6,0.2,0.9,0.2l-0.4,1.8l1.1,0.3l0.5-1.8c1.9,0.3,3.3,0.2,3.8-1.5c0.5-1.4,0-2.1-1-2.6
		C303.2,333.7,303.8,333.2,303.9,332.3L303.9,332.3z M301.4,335.7c-0.3,1.4-2.6,0.6-3.3,0.4l0.6-2.4
		C299.4,334,301.8,334.3,301.4,335.7L301.4,335.7z M301.8,332.2c-0.3,1.2-2.2,0.6-2.8,0.5l0.5-2.2
		C300.1,330.7,302.1,331,301.8,332.2z"/>
	<path class="st2" d="M318.7,329.8c0.8,0,1.5,0.2,2.1,0.4c0.6,0.3,1.1,0.7,1.5,1.1c0.4,0.5,0.7,1.1,0.9,1.7c0.2,0.7,0.3,1.4,0.3,2.1
		c0,1.1-0.2,2.3-0.7,3.3c-0.4,1-1,1.9-1.7,2.7c-0.7,0.8-1.6,1.4-2.6,1.8c-1,0.4-2.1,0.7-3.3,0.7c-0.2,0-0.4,0-0.8,0s-0.8,0-1.3-0.1
		c-0.5-0.1-1-0.2-1.5-0.3c-0.6-0.1-1.1-0.3-1.5-0.6l4.3-18.2l3.9-0.6l-1.5,6.5c0.3-0.2,0.7-0.3,1-0.3
		C317.9,329.8,318.3,329.8,318.7,329.8L318.7,329.8z M315.4,340.5c0.6,0,1.1-0.2,1.6-0.4c0.5-0.3,1-0.7,1.3-1.1
		c0.4-0.5,0.7-1,0.9-1.6c0.2-0.6,0.3-1.2,0.3-1.9c0-0.8-0.1-1.4-0.4-1.9c-0.3-0.5-0.8-0.7-1.5-0.7c-0.2,0-0.5,0-0.9,0.1
		c-0.4,0.1-0.7,0.2-1,0.5l-1.6,6.9c0.1,0,0.2,0,0.3,0.1c0.1,0,0.2,0,0.2,0c0.1,0,0.2,0,0.3,0S315.2,340.5,315.4,340.5L315.4,340.5z"
		/>
	<path class="st2" d="M327.4,343.2h-3.7l3.1-13.2h3.7L327.4,343.2z M329.2,328.4c-0.5,0-1-0.2-1.4-0.5c-0.4-0.3-0.6-0.8-0.6-1.4
		c0-0.3,0.1-0.7,0.2-1c0.2-0.3,0.3-0.6,0.6-0.8c0.2-0.2,0.5-0.4,0.8-0.5c0.3-0.1,0.7-0.2,1-0.2c0.5,0,1,0.2,1.4,0.5
		c0.4,0.3,0.6,0.8,0.6,1.4c0,0.3-0.1,0.7-0.2,1c-0.2,0.3-0.3,0.6-0.6,0.8c-0.2,0.2-0.5,0.4-0.8,0.5
		C329.9,328.4,329.5,328.4,329.2,328.4L329.2,328.4z"/>
	<path class="st2" d="M333.8,326.8l3.9-0.6l-1,3.9h4.1l-0.7,3.1H336l-1.1,4.6c-0.1,0.4-0.2,0.7-0.2,1.1c0,0.3,0,0.6,0.1,0.9
		s0.3,0.4,0.5,0.6c0.2,0.1,0.6,0.2,1.1,0.2c0.4,0,0.8,0,1.2-0.1c0.4-0.1,0.7-0.2,1.1-0.3l0.3,2.8c-0.5,0.2-1.1,0.3-1.6,0.5
		s-1.3,0.2-2.1,0.2c-1.1,0-2-0.2-2.7-0.5s-1.1-0.8-1.4-1.4c-0.3-0.6-0.4-1.3-0.3-2c0-0.8,0.2-1.6,0.3-2.4L333.8,326.8L333.8,326.8z"
		/>
	<path class="st2" d="M340.7,338c0-1.1,0.2-2.2,0.6-3.2c0.4-1,0.9-1.9,1.6-2.6c0.7-0.7,1.5-1.3,2.5-1.8c1-0.4,2.1-0.7,3.3-0.7
		c0.7,0,1.4,0.1,2,0.2s1.1,0.3,1.6,0.6l-1.3,2.9c-0.3-0.1-0.7-0.2-1.1-0.4c-0.4-0.1-0.8-0.2-1.3-0.2c-1.2,0-2.2,0.4-2.9,1.3
		c-0.7,0.9-1.1,2-1.1,3.4c0,0.9,0.2,1.5,0.6,2.1c0.4,0.5,1.1,0.8,2,0.8c0.5,0,1-0.1,1.4-0.2c0.5-0.1,0.9-0.2,1.2-0.4l0.3,3
		c-0.5,0.2-1,0.3-1.5,0.5c-0.6,0.1-1.2,0.2-2,0.2c-1,0-1.9-0.2-2.6-0.5c-0.7-0.3-1.3-0.7-1.8-1.2c-0.5-0.5-0.8-1.1-1-1.8
		C340.8,339.4,340.7,338.7,340.7,338L340.7,338z"/>
	<path class="st2" d="M357.2,343.6c-0.9,0-1.6-0.1-2.3-0.4c-0.7-0.3-1.2-0.7-1.6-1.1c-0.4-0.5-0.7-1.1-1-1.7s-0.3-1.4-0.3-2.2
		c0-1,0.2-2,0.5-3c0.3-1,0.8-1.9,1.5-2.7c0.6-0.8,1.4-1.5,2.3-2c0.9-0.5,2-0.8,3.2-0.8c0.9,0,1.6,0.1,2.3,0.4
		c0.7,0.3,1.2,0.7,1.6,1.1c0.4,0.5,0.7,1.1,1,1.7c0.2,0.7,0.3,1.4,0.3,2.2c0,1-0.2,2-0.5,3c-0.3,1-0.8,1.9-1.4,2.7s-1.4,1.5-2.3,2
		C359.5,343.3,358.4,343.6,357.2,343.6L357.2,343.6z M359.1,332.9c-0.6,0-1,0.2-1.5,0.5c-0.4,0.3-0.8,0.7-1.1,1.2s-0.5,1-0.7,1.6
		c-0.2,0.6-0.2,1.1-0.2,1.6c0,0.8,0.1,1.5,0.4,2c0.3,0.5,0.7,0.7,1.5,0.7c0.6,0,1-0.2,1.5-0.5c0.4-0.3,0.8-0.7,1.1-1.2
		s0.5-1,0.7-1.6c0.2-0.6,0.2-1.1,0.2-1.6c0-0.8-0.1-1.5-0.4-2C360.2,333.1,359.8,332.9,359.1,332.9L359.1,332.9z"/>
	<path class="st2" d="M368.7,343.2h-3.7l3.2-13.2h3.7L368.7,343.2z M370.5,328.4c-0.5,0-1-0.2-1.4-0.5c-0.4-0.3-0.6-0.8-0.6-1.4
		c0-0.3,0.1-0.7,0.2-1c0.2-0.3,0.3-0.6,0.6-0.8c0.2-0.2,0.5-0.4,0.8-0.5c0.3-0.1,0.7-0.2,1-0.2c0.5,0,1,0.2,1.4,0.5
		c0.4,0.3,0.6,0.8,0.6,1.4c0,0.3-0.1,0.7-0.2,1c-0.2,0.3-0.3,0.6-0.6,0.8c-0.2,0.2-0.5,0.4-0.8,0.5
		C371.2,328.4,370.8,328.4,370.5,328.4z"/>
	<path class="st2" d="M374.5,330.6c0.3-0.1,0.6-0.2,0.9-0.3c0.3-0.1,0.7-0.2,1.1-0.3c0.4-0.1,0.9-0.2,1.4-0.2
		c0.5-0.1,1.1-0.1,1.8-0.1c2,0,3.3,0.6,4.1,1.7s0.9,2.7,0.4,4.7l-1.7,7.1h-3.7l1.6-7c0.1-0.4,0.2-0.9,0.2-1.3c0.1-0.4,0.1-0.8,0-1.1
		c-0.1-0.3-0.2-0.6-0.5-0.7c-0.2-0.2-0.6-0.3-1.1-0.3c-0.5,0-1,0.1-1.5,0.2l-2.4,10.2h-3.7L374.5,330.6z"/>
</g>
<g>
	<g>
		<polygon class="st3" points="66.1,6 67.6,4.2 64.7,4.2 64.3,3.7 64.7,3.2 67.7,3.2 66.1,1.4 66.6,0.7 69,3.7 66.6,6.6 		"/>
		<polygon class="st4" points="59.3,3.2 63.5,3.2 66.1,0 61.8,0 		"/>
		<polygon class="st5" points="59.3,4.1 63.5,4.1 66.1,7.4 61.8,7.4 		"/>
	</g>
	<path class="st6" d="M74.3,2.5C74.3,2.6,74.3,2.6,74.3,2.5c0,0.1,0,0.2,0,0.2L74,5.7h-0.8l-0.1-0.3c-0.2,0.1-0.3,0.2-0.5,0.3
		c-0.2,0.1-0.3,0.1-0.6,0.1h-0.2c-0.1,0-0.2,0-0.2,0c-0.1,0-0.2-0.1-0.3-0.1c-0.1-0.1-0.2-0.2-0.2-0.3C71,5.2,71,5,71,4.9
		c0,0,0-0.1,0-0.1c0,0,0-0.1,0-0.2l0-0.2c0-0.1,0-0.2,0-0.3c0-0.1,0.1-0.2,0.2-0.3c0.1-0.1,0.2-0.2,0.4-0.3c0.2-0.1,0.5-0.1,0.7-0.1
		h0.9V3.1c0,0,0-0.1,0-0.1V2.9c0,0,0-0.1-0.1-0.1c0,0-0.1,0-0.1,0h-1.4l0.1-0.9h1.9c0.2,0,0.4,0.1,0.6,0.2
		C74.2,2.2,74.3,2.4,74.3,2.5L74.3,2.5z M72.1,4C72.1,4,72.1,4,72.1,4C72,4.1,72,4.1,72,4.1l0,0.3c0,0,0,0.1,0,0.2s0,0.1,0.1,0.2
		c0.1,0.1,0.1,0.1,0.2,0.1c0.2,0,0.3,0,0.4-0.1c0.1,0,0.3-0.1,0.4-0.1l0-0.7L72.1,4z M78.4,2.8c0,0.1,0,0.2,0,0.3l-0.1,1.2
		c0,0.3-0.1,0.7-0.3,0.9c-0.2,0.2-0.6,0.4-0.9,0.3h-1.3l-0.1,1.1h-1.1L75,1.9h0.9L76,2.2L76.3,2c0.1,0,0.2-0.1,0.4-0.1
		c0.1,0,0.2-0.1,0.4-0.1c0.1,0,0.2,0,0.4,0s0.3,0,0.4,0.1C77.9,2,78,2,78.1,2.1s0.2,0.2,0.2,0.3C78.4,2.6,78.4,2.7,78.4,2.8
		L78.4,2.8z M77.3,3.2c0-0.1,0-0.2-0.1-0.2c-0.1-0.1-0.2-0.1-0.2-0.1c0,0-0.1,0-0.2,0l-0.3,0.1L76.2,3L76,3l-0.1,1.6h1.2
		c0.1,0,0.2-0.1,0.2-0.1c0,0,0,0,0,0l0.1-1.2C77.3,3.3,77.3,3.3,77.3,3.2C77.3,3.2,77.3,3.2,77.3,3.2L77.3,3.2z M79.9,5.6h-1.1
		l0.3-3.7h1.1L79.9,5.6L79.9,5.6z M80.3,1.5h-1.2l0.1-0.7h1.2L80.3,1.5z M83,2.9h-0.2c-0.2,0-0.4,0-0.5,0.1c-0.2,0-0.3,0.1-0.4,0.1
		l-0.2,2.6h-1.1l0.3-3.7h0.9l0.1,0.3c0.1,0,0.2-0.1,0.3-0.1c0.1,0,0.2-0.1,0.3-0.1c0.1,0,0.2-0.1,0.3-0.1c0.1,0,0.2,0,0.3,0
		C83.1,1.8,83,2.9,83,2.9z M87,4.4c0,0.3-0.1,0.7-0.3,0.9c-0.2,0.2-0.6,0.4-0.9,0.4h-1.5c-0.2,0-0.5-0.1-0.6-0.2
		c-0.2-0.2-0.2-0.4-0.2-0.6c0,0,0-0.1,0-0.1s0-0.1,0-0.2l0.1-1.3c0-0.2,0-0.3,0.1-0.5c0.1-0.2,0.1-0.3,0.2-0.4
		C83.9,2.2,84,2.1,84.2,2c0.2-0.1,0.4-0.1,0.6-0.1h1.5c0.2,0,0.5,0.1,0.6,0.2c0.2,0.2,0.2,0.4,0.2,0.7c0,0,0,0.1,0,0.1
		c0,0,0,0.1,0,0.1L87,4.4L87,4.4z M86,3.1C86,3.1,86,3,85.9,3c-0.1,0-0.1-0.1-0.2-0.1h-1c-0.1,0-0.2,0.1-0.2,0.1c0,0,0,0,0,0
		l-0.1,1.2c0,0,0,0.1,0,0.1c0,0,0,0.1,0,0.1c0,0.1,0,0.1,0.1,0.2c0.1,0,0.1,0.1,0.2,0.1h1c0.1,0,0.2-0.1,0.2-0.1c0,0,0,0,0,0L86,3.3
		C86,3.3,86,3.2,86,3.1L86,3.1L86,3.1z M91.2,2.8c0,0.1,0,0.1,0,0.2s0,0.2,0,0.2L91,5.6h-1.1l0.2-2.2c0-0.1,0-0.2,0-0.2
		c0-0.2-0.1-0.3-0.3-0.3c-0.2,0-0.3,0-0.5,0.1C89.1,2.9,89,3,88.8,3l-0.2,2.6h-1.1l0.3-3.7h0.9l0.1,0.3c0.1,0,0.2-0.1,0.3-0.1
		s0.2-0.1,0.4-0.1c0.1,0,0.2-0.1,0.4-0.1c0.1,0,0.2,0,0.3,0c0.1,0,0.2,0,0.3,0c0.1,0,0.2,0.1,0.3,0.1C90.9,2,91,2.1,91,2.2
		C91.2,2.4,91.2,2.6,91.2,2.8L91.2,2.8z M95,2.8c0,0,0,0.1,0,0.1c0,0,0,0.1,0,0.1l0,0.3c0,0.2-0.1,0.4-0.3,0.5
		c-0.2,0.1-0.4,0.2-0.6,0.3c-0.1,0-0.2,0-0.3,0l-0.4,0l-0.3,0c-0.1,0-0.2,0-0.2,0v0.1c0,0,0,0.1,0,0.1v0.1c0,0.1,0,0.2,0.1,0.2
		c0.1,0.1,0.2,0.1,0.3,0.1c0.1,0,0.3,0,0.4,0l0.5-0.1c0.2,0,0.3,0,0.5-0.1s0.3-0.1,0.4-0.1l-0.1,0.8c-0.1,0.1-0.2,0.1-0.4,0.1
		c-0.2,0.1-0.3,0.1-0.5,0.1c-0.2,0-0.3,0.1-0.5,0.1c-0.2,0-0.3,0-0.5,0c-0.1,0-0.2,0-0.4,0c-0.2,0-0.3-0.1-0.4-0.1
		c-0.2-0.1-0.2-0.2-0.3-0.3c-0.1-0.2-0.2-0.4-0.2-0.6c0-0.1,0-0.1,0-0.2s0-0.1,0-0.2l0.1-1.2c0-0.2,0-0.3,0.1-0.5
		C92,2.5,92,2.4,92.2,2.3S92.4,2,92.6,2c0.2-0.1,0.4-0.1,0.6-0.1h0.8c0.2,0,0.4,0,0.6,0.1c0.1,0.1,0.2,0.1,0.3,0.2
		C94.9,2.3,95,2.4,95,2.5C95,2.6,95,2.7,95,2.8L95,2.8z M93.3,2.8c-0.1,0-0.2,0-0.2,0.1C93,2.9,92.9,3,92.9,3.1l0,0.4h0.2
		c0.1,0,0.2,0,0.3,0l0.3,0c0.1,0,0.1,0,0.2,0c0.1,0,0.2,0,0.2-0.1c0,0,0.1-0.1,0.1-0.1c0,0,0-0.1,0-0.1s0-0.1,0-0.1
		c0-0.1-0.1-0.2-0.2-0.2h0L93.3,2.8z"/>
</g>
</svg>
