<?xml version="1.0" encoding="UTF-8"?>
<!DOCTYPE svg PUBLIC "-//W3C//DTD SVG 1.0//EN" "http://www.w3.org/TR/2001/REC-SVG-20010904/DTD/svg10.dtd">
<!-- Creator: CorelDRAW X8 -->
<svg xmlns="http://www.w3.org/2000/svg" xml:space="preserve" width="591px" height="122px" version="1.0" style="shape-rendering:geometricPrecision; text-rendering:geometricPrecision; image-rendering:optimizeQuality; fill-rule:evenodd; clip-rule:evenodd"
viewBox="0 0 591 122"
 xmlns:xlink="http://www.w3.org/1999/xlink">
 <defs>
  <style type="text/css">
   <![CDATA[
    .fil2 {fill:#AD161B}
    .fil0 {fill:#DB1F28}
    .fil1 {fill:#EB7077}
    .fil3 {fill:white;fill-rule:nonzero}
   ]]>
  </style>
 </defs>
 <g id="Layer_x0020_1">
  <metadata id="CorelCorpID_0Corel-Layer"/>
  <g id="_1645798924960">
   <g>
    <polygon class="fil0" points="113,99 137,69 89,69 83,61 89,53 138,53 113,23 122,12 161,61 122,110 "/>
    <polygon class="fil1" points="0,53 70,53 113,0 42,0 "/>
    <polygon class="fil2" points="0,68 70,68 113,122 42,122 "/>
   </g>
   <path class="fil3" d="M248 41c0,1 0,1 0,2 0,0 0,1 0,1l-4 49 -14 0 -1 -6c-3,2 -5,3 -8,5 -4,1 -6,2 -9,2l-4 0c-1,0 -2,0 -4,-1 -2,0 -3,-1 -5,-2 -2,-1 -3,-2 -4,-4 -1,-2 -2,-5 -2,-8 0,0 0,-1 0,-2 0,-1 0,-2 0,-3l0 -4c0,-1 0,-3 1,-5 0,-2 1,-4 3,-6 1,-2 3,-3 6,-4 3,-2 6,-2 11,-2l15 0 1 -3c0,-1 0,-1 0,-2 0,0 0,0 0,-1 0,0 -1,-1 -1,-1 -1,0 -1,-1 -2,-1l-23 0 1 -14 31 0c4,0 7,1 9,3 2,2 3,4 3,7zm-35 24c-1,0 -1,0 -2,1 0,0 -1,1 -1,2l0 5c-1,1 -1,2 -1,2 1,1 1,2 1,3 1,1 2,1 4,1 2,0 4,0 7,-1 2,0 5,-1 7,-2l0 -11 -15 0zm103 -19c1,2 1,4 0,6l-1 19c-1,7 -3,12 -6,16 -3,4 -8,6 -15,6l-21 0 -2 17 -18 0 6 -79 15 0 2 4c2,0 3,-1 5,-2 2,-1 4,-1 6,-2 3,0 5,-1 7,-1 2,-1 4,-1 6,-1 2,0 4,1 6,2 2,0 4,2 6,3 1,2 2,4 3,6 1,2 1,4 1,6zm-18 5c0,-1 0,-2 -1,-3 -1,-1 -2,-1 -4,-1 -1,0 -2,0 -4,0 -1,0 -2,0 -4,0 -2,1 -3,1 -5,1 -1,1 -3,1 -4,1l-2 27 20 0c2,0 2,0 3,-2l1 -20c0,0 0,-1 0,-1 0,-1 0,-1 0,-2zm44 42l-19 0 5 -62 19 0 -5 62zm6 -70l-20 0 1 -11 20 0 -1 11zm45 24l-2 0c-3,0 -6,0 -9,1 -3,0 -6,1 -8,2l-3 43 -19 0 5 -62 16 0 1 5c1,-1 3,-2 5,-2 1,-1 3,-2 5,-3 2,0 3,-1 5,-1 2,-1 4,-1 5,-1l-1 18zm65 24c0,7 -2,12 -6,16 -3,4 -8,6 -14,6l-25 0c-5,0 -8,-2 -11,-4 -2,-2 -4,-6 -4,-10 0,-1 0,-2 0,-2 0,-1 0,-2 0,-4l2 -21c0,-3 1,-6 2,-9 1,-2 2,-5 4,-6 1,-2 4,-4 6,-5 3,-1 6,-1 9,-1l25 0c4,0 7,1 10,4 2,3 4,6 4,11 0,0 0,1 0,2 0,0 0,1 0,2l-2 21zm-16 -20c0,-2 -1,-2 -2,-3 0,-1 -1,-1 -3,-1l-17 0c-1,0 -2,1 -2,2l-1 20c0,0 -1,1 -1,1 0,1 0,1 0,2 1,1 1,2 2,2 0,1 1,1 3,1l17 0c1,0 2,0 2,-2l2 -20c0,-1 0,-1 0,-1 0,-1 0,-1 0,-1zm86 -6c1,1 1,2 1,3 -1,1 -1,2 -1,4l-3 41 -18 0 3 -37c0,-2 0,-3 0,-4 -1,-4 -2,-5 -6,-5 -2,0 -4,0 -7,0 -3,1 -6,2 -9,2l-3 44 -19 0 5 -62 15 0 2 4c2,-1 4,-1 6,-2 2,-1 4,-1 6,-2 2,0 4,-1 6,-1 2,-1 4,-1 6,-1 1,0 3,0 5,1 2,0 3,1 5,2 2,1 3,2 4,4 1,2 2,5 2,9zm63 0c0,0 0,1 0,2 0,1 0,1 0,2l-1 5c0,3 -2,6 -4,8 -3,3 -7,4 -11,5 -1,0 -2,0 -4,1 -2,0 -4,0 -6,0 -2,0 -4,0 -6,0 -2,0 -3,0 -4,0l0 3c0,1 0,1 0,1l0 1c0,1 0,2 1,3 1,1 2,2 4,2 2,0 5,0 8,-1 2,0 5,0 8,0 2,-1 5,-1 7,-1 3,-1 5,-1 7,-2l-1 14c-2,1 -4,1 -7,2 -2,1 -5,2 -8,2 -2,1 -5,1 -8,1 -3,1 -6,1 -8,1 -2,0 -4,0 -6,0 -2,-1 -5,-1 -7,-3 -2,-1 -4,-2 -6,-5 -1,-2 -2,-5 -3,-9 0,-1 0,-2 0,-3 0,-1 0,-1 0,-3l2 -19c0,-3 1,-6 2,-8 1,-3 2,-5 4,-7 1,-2 4,-4 6,-5 3,-1 6,-1 10,-1l13 0c3,0 7,0 9,1 2,1 4,2 5,4 2,1 3,3 3,4 1,2 1,3 1,5zm-29 0c-1,0 -2,1 -3,2 -2,0 -2,2 -3,3l0 7c0,0 1,0 3,0 1,0 3,0 4,0 2,0 3,0 5,0 1,-1 2,-1 3,-1 2,0 3,-1 3,-1 1,-1 1,-2 2,-2 0,-1 0,-1 0,-2 0,0 0,-1 0,-1 0,-2 -1,-3 -1,-3 -1,-1 -2,-2 -4,-2l-9 0z"/>
  </g>
 </g>
</svg>
